# xmcd
#
# Track frame offsets: 
#        150
#        14812
#        39123
#        66724
#        85980
#        109083
#        136812
#        174578
#        214418
#        226957
#
# Disc length: 3304 seconds
#
# Revision: 0
# Processed by: cddbd v1.5.2PL0 Copyright (c) Steve Scherf et al.
# Submitted via: ExactAudioCopy v1.0b1
#
DISCID=8d0ce60a
DTITLE=Bleumatics - Feel Like A King
DYEAR=2010
DGENRE=Blues
TTITLE0=Feel Like A King
TTITLE1=One More Chance
TTITLE2=Can't Get Away From the Night
TTITLE3=Montana Home
TTITLE4=Turn Around
TTITLE5=Chattooga
TTITLE6=Live Trilogy
TTITLE7=Don't Worry Baby
TTITLE8=Reunion
TTITLE9=Remember
EXTD=
EXTT0=
EXTT1=
EXTT2=
EXTT3=
EXTT4=
EXTT5=
EXTT6=
EXTT7=
EXTT8=
EXTT9=
PLAYORDER=
